<svg width="20" height="20" viewBox="0 0 20 20" fill="none" xmlns="http://www.w3.org/2000/svg">
<g id="&#240;&#159;&#166;&#134; icon &#34;Pinterest Square&#34;">
<path id="Vector" d="M20 2.14286V17.8571C20 19.0402 19.0402 20 17.8571 20H6.89286C7.33036 19.2679 7.89286 18.2143 8.11607 17.3527C8.25 16.8393 8.79911 14.7455 8.79911 14.7455C9.15625 15.4286 10.2009 16.0045 11.3125 16.0045C14.6205 16.0045 17 12.9643 17 9.1875C17 5.56696 14.0446 2.85714 10.2411 2.85714C5.50893 2.85714 3 6.03125 3 9.49107C3 11.0982 3.85714 13.0982 5.22321 13.7366C5.43304 13.8348 5.54018 13.7902 5.58929 13.5893C5.625 13.4375 5.8125 12.692 5.89286 12.3482C5.91964 12.2366 5.90625 12.1429 5.81696 12.0357C5.36607 11.4866 5 10.4777 5 9.53572C5 7.11607 6.83036 4.77679 9.95089 4.77679C12.6429 4.77679 14.5312 6.61161 14.5312 9.23661C14.5312 12.2009 13.0357 14.2545 11.0848 14.2545C10.0089 14.2545 9.20536 13.3661 9.45982 12.2723C9.76786 10.9688 10.3661 9.5625 10.3661 8.62054C10.3661 6.25446 6.99554 6.58036 6.99554 9.73661C6.99554 10.7054 7.32143 11.3661 7.32143 11.3661C5.91964 17.2946 5.70982 17.3705 6 19.9643L6.09821 20H2.14286C0.959821 20 0 19.0402 0 17.8571V2.14286C0 0.959821 0.959821 0 2.14286 0H17.8571C19.0402 0 20 0.959821 20 2.14286Z" fill="black"/>
</g>
</svg>
